<svg xmlns="http://www.w3.org/2000/svg" viewBox="0 0 200 200" width="200" height="200">
  <!-- Browiser Logo: Brain + Browser fusion -->
  <defs>
    <linearGradient id="browiserGradient" x1="0%" y1="0%" x2="100%" y2="100%">
      <stop offset="0%" style="stop-color:#667eea;stop-opacity:1" />
      <stop offset="50%" style="stop-color:#764ba2;stop-opacity:1" />
      <stop offset="100%" style="stop-color:#f093fb;stop-opacity:1" />
    </linearGradient>
    
    <linearGradient id="glowGradient" x1="0%" y1="0%" x2="100%" y2="100%">
      <stop offset="0%" style="stop-color:#00ff88;stop-opacity:0.8" />
      <stop offset="100%" style="stop-color:#00ffff;stop-opacity:0.8" />
    </linearGradient>
    
    <filter id="glow">
      <feGaussianBlur stdDeviation="4" result="coloredBlur"/>
      <feMerge>
        <feMergeNode in="coloredBlur"/>
        <feMergeNode in="SourceGraphic"/>
      </feMerge>
    </filter>
  </defs>
  
  <!-- Outer circle (browser window) -->
  <circle cx="100" cy="100" r="90" fill="url(#browiserGradient)" opacity="0.9"/>
  <!-- Outer circle (browser window) -->
  <circle cx="100" cy="100" r="90" fill="url(#browiserGradient)" opacity="0.9"/>
  
  <!-- Brain shape (stylized left and right hemispheres) -->
  <!-- Left hemisphere -->
  <path d="M 100 30 Q 50 30 40 60 Q 35 80 45 100 Q 40 120 50 140 Q 60 160 100 170" 
        fill="none" stroke="white" stroke-width="4" opacity="0.8"/>
  
  <!-- Right hemisphere -->
  <path d="M 100 30 Q 150 30 160 60 Q 165 80 155 100 Q 160 120 150 140 Q 140 160 100 170" 
        fill="none" stroke="white" stroke-width="4" opacity="0.8"/>
  
  <!-- Brain folds (cortex details) -->
  <path d="M 60 50 Q 70 55 80 50" fill="none" stroke="white" stroke-width="2" opacity="0.6"/>
  <path d="M 120 50 Q 130 55 140 50" fill="none" stroke="white" stroke-width="2" opacity="0.6"/>
  <path d="M 55 70 Q 65 75 75 70" fill="none" stroke="white" stroke-width="2" opacity="0.6"/>
  <path d="M 125 70 Q 135 75 145 70" fill="none" stroke="white" stroke-width="2" opacity="0.6"/>
  <path d="M 50 90 Q 60 95 70 90" fill="none" stroke="white" stroke-width="2" opacity="0.6"/>
  <path d="M 130 90 Q 140 95 150 90" fill="none" stroke="white" stroke-width="2" opacity="0.6"/>
  <path d="M 55 110 Q 65 115 75 110" fill="none" stroke="white" stroke-width="2" opacity="0.6"/>
  <path d="M 125 110 Q 135 115 145 110" fill="none" stroke="white" stroke-width="2" opacity="0.6"/>
  <path d="M 60 130 Q 70 135 80 130" fill="none" stroke="white" stroke-width="2" opacity="0.6"/>
  <path d="M 120 130 Q 130 135 140 130" fill="none" stroke="white" stroke-width="2" opacity="0.6"/>
  
  <!-- Center connection (corpus callosum) -->
  <line x1="100" y1="50" x2="100" y2="150" stroke="url(#glowGradient)" stroke-width="3" opacity="0.7"/>
  
  <!-- Neural synapses (glowing dots) -->
  <circle cx="70" cy="60" r="3" fill="url(#glowGradient)" filter="url(#glow)"/>
  <circle cx="130" cy="60" r="3" fill="url(#glowGradient)" filter="url(#glow)"/>
  <circle cx="65" cy="85" r="3" fill="url(#glowGradient)" filter="url(#glow)"/>
  <circle cx="135" cy="85" r="3" fill="url(#glowGradient)" filter="url(#glow)"/>
  <circle cx="70" cy="110" r="3" fill="url(#glowGradient)" filter="url(#glow)"/>
  <circle cx="130" cy="110" r="3" fill="url(#glowGradient)" filter="url(#glow)"/>
  <circle cx="80" cy="140" r="3" fill="url(#glowGradient)" filter="url(#glow)"/>
  <circle cx="120" cy="140" r="3" fill="url(#glowGradient)" filter="url(#glow)"/>
  
  <!-- Wisdom eye (third eye concept) -->
  <circle cx="100" cy="100" r="15" fill="url(#glowGradient)" filter="url(#glow)" opacity="0.6"/>
  <circle cx="100" cy="100" r="8" fill="white"/>
  <circle cx="100" cy="100" r="4" fill="#667eea"/>
  
  <!-- GENE helix (connecting to brain) -->
  <path d="M 70 160 Q 85 165 100 160 Q 115 155 130 160" 
        fill="none" stroke="#00ff88" stroke-width="2" opacity="0.7"/>
  
  <!-- Browser address bar (top) -->
  <rect x="30" y="15" width="140" height="12" rx="6" fill="rgba(255,255,255,0.2)"/>
  <circle cx="40" cy="21" r="2" fill="white"/>
  <circle cx="48" cy="21" r="2" fill="white"/>
  <circle cx="56" cy="21" r="2" fill="white"/>
  
  <!-- Time rings (optional, subtle) -->
  <circle cx="100" cy="100" r="70" fill="none" stroke="white" stroke-width="1" opacity="0.2"/>
  <circle cx="100" cy="100" r="55" fill="none" stroke="white" stroke-width="1" opacity="0.15"/>
  <circle cx="100" cy="100" r="40" fill="none" stroke="white" stroke-width="1" opacity="0.1"/>
  
  <!-- Corner accents (sci-fi tech look) -->
  <line x1="15" y1="15" x2="35" y2="15" stroke="#00ffff" stroke-width="2" stroke-linecap="round" opacity="0.6"/>
  <line x1="15" y1="15" x2="15" y2="35" stroke="#00ffff" stroke-width="2" stroke-linecap="round" opacity="0.6"/>
  
  <line x1="185" y1="15" x2="165" y2="15" stroke="#00ffff" stroke-width="2" stroke-linecap="round" opacity="0.6"/>
  <line x1="185" y1="15" x2="185" y2="35" stroke="#00ffff" stroke-width="2" stroke-linecap="round" opacity="0.6"/>
  
  <line x1="15" y1="185" x2="35" y2="185" stroke="#00ffff" stroke-width="2" stroke-linecap="round" opacity="0.6"/>
  <line x1="15" y1="185" x2="15" y2="165" stroke="#00ffff" stroke-width="2" stroke-linecap="round" opacity="0.6"/>
  
  <line x1="185" y1="185" x2="165" y2="185" stroke="#00ffff" stroke-width="2" stroke-linecap="round" opacity="0.6"/>
  <line x1="185" y1="185" x2="185" y2="165" stroke="#00ffff" stroke-width="2" stroke-linecap="round" opacity="0.6"/>
</svg>
