<svg xmlns="http://www.w3.org/2000/svg" viewBox="0 0 200 200" width="200" height="200">
  <!-- Background circle with gradient -->
  <defs>
    <linearGradient id="chronoGradient" x1="0%" y1="0%" x2="100%" y2="100%">
      <stop offset="0%" style="stop-color:#667eea;stop-opacity:1" />
      <stop offset="100%" style="stop-color:#764ba2;stop-opacity:1" />
    </linearGradient>
    
    <linearGradient id="glowGradient" x1="0%" y1="0%" x2="100%" y2="100%">
      <stop offset="0%" style="stop-color:#00ff88;stop-opacity:0.8" />
      <stop offset="100%" style="stop-color:#00ffff;stop-opacity:0.8" />
    </linearGradient>
    
    <filter id="glow">
      <feGaussianBlur stdDeviation="4" result="coloredBlur"/>
      <feMerge>
        <feMergeNode in="coloredBlur"/>
        <feMergeNode in="SourceGraphic"/>
      </feMerge>
    </filter>
  </defs>
  
  <!-- Outer circle -->
  <circle cx="100" cy="100" r="90" fill="url(#chronoGradient)" opacity="0.9"/>
  
  <!-- Time rings (multiple circles) -->
  <circle cx="100" cy="100" r="70" fill="none" stroke="white" stroke-width="2" opacity="0.6"/>
  <circle cx="100" cy="100" r="55" fill="none" stroke="white" stroke-width="2" opacity="0.4"/>
  <circle cx="100" cy="100" r="40" fill="none" stroke="white" stroke-width="3" opacity="0.8"/>
  
  <!-- Center lens -->
  <circle cx="100" cy="100" r="25" fill="none" stroke="url(#glowGradient)" stroke-width="4" filter="url(#glow)"/>
  <circle cx="100" cy="100" r="10" fill="url(#glowGradient)" filter="url(#glow)"/>
  
  <!-- Clock hands (hour and minute) -->
  <line x1="100" y1="100" x2="100" y2="50" stroke="white" stroke-width="6" stroke-linecap="round"/>
  <line x1="100" y1="100" x2="140" y2="100" stroke="white" stroke-width="4" stroke-linecap="round"/>
  
  <!-- Time markers (12 positions) -->
  <circle cx="100" cy="20" r="4" fill="white"/>
  <circle cx="155" cy="45" r="4" fill="white"/>
  <circle cx="180" cy="100" r="4" fill="white"/>
  <circle cx="155" cy="155" r="4" fill="white"/>
  <circle cx="100" cy="180" r="4" fill="white"/>
  <circle cx="45" cy="155" r="4" fill="white"/>
  <circle cx="20" cy="100" r="4" fill="white"/>
  <circle cx="45" cy="45" r="4" fill="white"/>
  
  <!-- GENE helix (DNA-like structure) -->
  <path d="M 70 70 Q 85 75 100 70 Q 115 65 130 70" 
        fill="none" stroke="#00ff88" stroke-width="2" opacity="0.7"/>
  <path d="M 70 100 Q 85 105 100 100 Q 115 95 130 100" 
        fill="none" stroke="#00ff88" stroke-width="2" opacity="0.7"/>
  <path d="M 70 130 Q 85 135 100 130 Q 115 125 130 130" 
        fill="none" stroke="#00ff88" stroke-width="2" opacity="0.7"/>
  
  <!-- Corner accents (sci-fi tech look) -->
  <line x1="15" y1="15" x2="35" y2="15" stroke="#00ffff" stroke-width="3" stroke-linecap="round" opacity="0.8"/>
  <line x1="15" y1="15" x2="15" y2="35" stroke="#00ffff" stroke-width="3" stroke-linecap="round" opacity="0.8"/>
  
  <line x1="185" y1="15" x2="165" y2="15" stroke="#00ffff" stroke-width="3" stroke-linecap="round" opacity="0.8"/>
  <line x1="185" y1="15" x2="185" y2="35" stroke="#00ffff" stroke-width="3" stroke-linecap="round" opacity="0.8"/>
  
  <line x1="15" y1="185" x2="35" y2="185" stroke="#00ffff" stroke-width="3" stroke-linecap="round" opacity="0.8"/>
  <line x1="15" y1="185" x2="15" y2="165" stroke="#00ffff" stroke-width="3" stroke-linecap="round" opacity="0.8"/>
  
  <line x1="185" y1="185" x2="165" y2="185" stroke="#00ffff" stroke-width="3" stroke-linecap="round" opacity="0.8"/>
  <line x1="185" y1="185" x2="185" y2="165" stroke="#00ffff" stroke-width="3" stroke-linecap="round" opacity="0.8"/>
</svg>
